<svg width="492.74873046874995px" height="121.6174835205078px" xmlns="http://www.w3.org/2000/svg" viewBox="3.6256347656250227 14.191258239746098 492.74873046874995 121.6174835205078" style="background: rgba(0, 0, 0, 0);" preserveAspectRatio="xMidYMid"><defs><filter id="editing-extrusion" x="-100%" y="-100%" width="300%" height="300%"><feFlood result="color1" flood-color="#444"></feFlood><feConvolveMatrix order="8,8" divisor="1" kernelMatrix="1 0 0 0 0 0 0 0 0 1 0 0 0 0 0 0 0 0 1 0 0 0 0 0 0 0 0 1 0 0 0 0 0 0 0 0 1 0 0 0 0 0 0 0 0 1 0 0 0 0 0 0 0 0 1 0 0 0 0 0 0 0 0 1" in="SourceAlpha" result="extrude"></feConvolveMatrix><feComposite in="color1" in2="extrude" result="comp-extrude" operator="in"></feComposite><feOffset dx="4" dy="4" in="comp-extrude" result="offset-extrude"></feOffset><feMerge><feMergeNode in="offset-extrude"></feMergeNode><feMergeNode in="SourceGraphic"></feMergeNode></feMerge></filter></defs><g filter="url(#editing-extrusion)"><g transform="translate(76.40406250953674, 98.46125030517578)"><path d="M42.62-26.56L42.62-26.56L42.62-26.56Q42.62 0.70 13.06 0.70L13.06 0.70L13.06 0.70Q8.32 0.70 0.51-0.45L0.51-0.45L7.68-38.27L7.68-38.27Q8.19-40.83 8.51-42.30L8.51-42.30L8.51-42.30Q18.24-43.01 22.56-43.01L22.56-43.01L22.56-43.01Q26.88-43.01 30.85-42.11L30.85-42.11L30.85-42.11Q34.82-41.22 37.44-39.23L37.44-39.23L37.44-39.23Q42.62-35.33 42.62-26.56ZM29.44-28.93L29.44-28.93L29.44-28.93Q29.44-38.46 22.59-38.46L22.59-38.46L21.95-38.46L21.95-38.46Q21.63-38.46 21.31-38.40L21.31-38.40L14.72-4.03L14.72-4.03Q14.98-3.90 15.23-3.90L15.23-3.90L15.74-3.90L15.74-3.90Q18.11-3.90 20.58-5.38L20.58-5.38L20.58-5.38Q23.04-6.85 24.96-9.86L24.96-9.86L24.96-9.86Q29.44-16.83 29.44-28.93ZM48.67-1.92L48.67-1.92L48.67-1.92Q47.17-3.58 46.50-6.21L46.50-6.21L46.50-6.21Q45.82-8.83 45.82-13.12L45.82-13.12L45.82-13.12Q45.82-17.41 47.30-21.31L47.30-21.31L47.30-21.31Q48.77-25.22 51.46-28.03L51.46-28.03L51.46-28.03Q56.96-33.92 66.05-33.92L66.05-33.92L66.05-33.92Q69.31-33.92 71.68-32.83L71.68-32.83L82.62-33.92L77.89-8.96L77.89-8.96Q77.70-8.19 77.70-6.78L77.70-6.78L77.70-6.78Q77.70-5.38 78.56-4.48L78.56-4.48L78.56-4.48Q79.42-3.58 80.70-3.46L80.70-3.46L80.70-3.46Q80.06-1.28 77.73 0L77.73 0L77.73 0Q75.39 1.28 72.77 1.28L72.77 1.28L72.77 1.28Q70.14 1.28 68.38 0.29L68.38 0.29L68.38 0.29Q66.62-0.70 66.11-2.37L66.11-2.37L66.11-2.37Q65.09-0.77 62.91 0.26L62.91 0.26L62.91 0.26Q60.74 1.28 57.82 1.28L57.82 1.28L57.82 1.28Q54.91 1.28 52.54 0.51L52.54 0.51L52.54 0.51Q50.18-0.26 48.67-1.92ZM62.18-27.90L62.18-27.90L62.18-27.90Q61.44-26.75 60.80-24.80L60.80-24.80L60.80-24.80Q60.16-22.85 59.10-17.63L59.10-17.63L59.10-17.63Q58.05-12.42 58.05-8.70L58.05-8.70L58.05-8.70Q58.05-4.99 58.62-3.90L58.62-3.90L58.62-3.90Q59.20-2.82 60.22-2.82L60.22-2.82L60.22-2.82Q62.27-2.82 63.78-4.77L63.78-4.77L63.78-4.77Q65.28-6.72 65.86-10.18L65.86-10.18L69.25-28.93L69.25-28.93Q67.90-30.08 66.34-30.08L66.34-30.08L66.34-30.08Q64.77-30.08 63.84-29.57L63.84-29.57L63.84-29.57Q62.91-29.06 62.18-27.90ZM105.22-22.46L105.22-22.46L105.22-22.46Q106.11-24.83 106.11-26.88L106.11-26.88L106.11-26.88Q106.11-30.66 103.04-30.66L103.04-30.66L103.04-30.66Q101.44-30.66 100.13-29.22L100.13-29.22L100.13-29.22Q98.82-27.78 98.82-25.98L98.82-25.98L98.82-25.98Q98.82-24.70 99.84-23.68L99.84-23.68L99.84-23.68Q101.31-22.27 105.09-19.97L105.09-19.97L105.09-19.97Q108.86-17.66 110.30-15.78L110.30-15.78L110.30-15.78Q111.74-13.89 111.74-11.30L111.74-11.30L111.74-11.30Q111.74-8.70 110.50-6.34L110.50-6.34L110.50-6.34Q109.25-3.97 107.01-2.30L107.01-2.30L107.01-2.30Q102.21 1.28 94.53 1.28L94.53 1.28L94.53 1.28Q90.37 1.28 87.17-0.90L87.17-0.90L87.17-0.90Q83.97-3.01 83.97-5.50L83.97-5.50L83.97-5.50Q83.97-8 85.79-9.47L85.79-9.47L85.79-9.47Q87.62-10.94 90.30-10.94L90.30-10.94L90.30-10.94Q92.99-10.94 94.66-9.92L94.66-9.92L94.66-9.92Q93.82-7.81 93.82-6.40L93.82-6.40L93.82-6.40Q93.82-2.18 97.41-2.18L97.41-2.18L97.41-2.18Q98.94-2.18 99.97-3.14L99.97-3.14L99.97-3.14Q100.99-4.10 100.99-5.76L100.99-5.76L100.99-5.76Q100.99-9.02 95.49-12.48L95.49-12.48L95.49-12.48Q91.01-15.42 89.98-16.58L89.98-16.58L89.98-16.58Q88.26-18.62 88.26-21.18L88.26-21.18L88.26-21.18Q88.26-23.74 89.47-26.18L89.47-26.18L89.47-26.18Q90.69-28.61 92.93-30.34L92.93-30.34L92.93-30.34Q97.60-33.92 105.73-33.92L105.73-33.92L105.73-33.92Q109.89-33.92 112.35-32.26L112.35-32.26L112.35-32.26Q114.82-30.59 114.82-27.78L114.82-27.78L114.82-27.78Q114.82-24.96 113.12-23.36L113.12-23.36L113.12-23.36Q111.42-21.76 108.35-21.76L108.35-21.76L108.35-21.76Q106.24-21.76 105.22-22.46ZM149.38-7.10L149.38-7.10L149.38-7.10Q149.38-4.29 152.26-3.46L152.26-3.46L152.26-3.46Q151.55-1.09 148.80 0.19L148.80 0.19L148.80 0.19Q146.50 1.28 143.97 1.28L143.97 1.28L143.97 1.28Q141.44 1.28 140.13 0.61L140.13 0.61L140.13 0.61Q138.82-0.06 138.11-1.15L138.11-1.15L138.11-1.15Q136.96-2.82 136.96-5.95L136.96-5.95L136.96-5.95Q136.96-7.81 137.98-12.93L137.98-12.93L138.88-17.79L138.88-17.79Q139.97-23.36 139.97-25.41L139.97-25.41L139.97-25.41Q139.97-28.99 137.98-28.99L137.98-28.99L137.98-28.99Q135.49-28.99 133.89-25.34L133.89-25.34L133.89-25.34Q133.25-23.94 132.80-21.82L132.80-21.82L128.45 0L115.58 1.28L124.61-44.80L137.47-46.08L136.96-43.52L136.96-43.52Q135.17-33.66 133.63-30.34L133.63-30.34L133.63-30.34Q137.22-33.92 143.81-33.92L143.81-33.92L143.81-33.92Q150.78-33.92 152.06-29.31L152.06-29.31L152.06-29.31Q152.51-27.84 152.51-26.56L152.51-26.56L152.51-26.56Q152.51-25.28 152.42-24.29L152.42-24.29L152.42-24.29Q152.32-23.30 152-21.50L152-21.50L151.17-16.90L149.70-9.66L149.70-9.66Q149.38-8.19 149.38-7.10ZM156.61-3.07L156.61-3.07L164.54-44.80L177.54-46.08L175.55-36.29L175.55-36.29Q174.85-33.28 173.95-31.17L173.95-31.17L173.95-31.17Q175.36-32.96 178.43-33.66L178.43-33.66L178.43-33.66Q179.33-33.92 180.42-33.92L180.42-33.92L180.42-33.92Q186.37-33.92 189.63-30.30L189.63-30.30L189.63-30.30Q192.90-26.69 192.90-19.71L192.90-19.71L192.90-19.71Q192.90-10.62 187.71-4.93L187.71-4.93L187.71-4.93Q182.14 1.28 172.03 1.28L172.03 1.28L172.03 1.28Q165.06 1.28 159.81-1.02L159.81-1.02L159.81-1.02Q157.95-1.86 156.61-3.07ZM172.86-22.40L169.47-3.65L169.47-3.65Q170.82-2.50 172.48-2.50L172.48-2.50L172.48-2.50Q174.14-2.50 175.10-3.14L175.10-3.14L175.10-3.14Q176.06-3.78 176.77-5.06L176.77-5.06L176.77-5.06Q178.69-8.51 180.22-19.07L180.22-19.07L180.22-19.07Q180.67-22.08 180.67-25.09L180.67-25.09L180.67-25.09Q180.67-28.10 180-29.06L180-29.06L180-29.06Q179.33-30.02 178.05-30.02L178.05-30.02L178.05-30.02Q174.14-30.02 172.86-22.40L172.86-22.40ZM210.69 1.28L210.69 1.28L210.69 1.28Q196.61 1.28 196.61-11.97L196.61-11.97L196.61-11.97Q196.61-21.38 201.79-27.46L201.79-27.46L201.79-27.46Q207.30-33.92 216.83-33.92L216.83-33.92L216.83-33.92Q223.74-33.92 227.26-30.72L227.26-30.72L227.26-30.72Q230.78-27.52 230.78-20.80L230.78-20.80L230.78-20.80Q230.78-10.56 225.28-4.61L225.28-4.61L225.28-4.61Q219.90 1.28 210.69 1.28ZM212.35-26.56L212.35-26.56L212.35-26.56Q211.58-24.83 210.98-22.24L210.98-22.24L210.98-22.24Q210.37-19.65 209.60-15.55L209.60-15.55L209.60-15.55Q208.83-11.46 208.83-6.40L208.83-6.40L208.83-6.40Q208.83-4.74 209.38-3.65L209.38-3.65L209.38-3.65Q209.92-2.56 211.39-2.56L211.39-2.56L211.39-2.56Q212.86-2.56 213.79-3.26L213.79-3.26L213.79-3.26Q214.72-3.97 215.42-5.63L215.42-5.63L215.42-5.63Q216.70-8.58 217.73-14.05L217.73-14.05L217.73-14.05Q218.75-19.52 218.85-21.89L218.85-21.89L218.85-21.89Q218.94-24.26 218.94-26.02L218.94-26.02L218.94-26.02Q218.94-27.78 218.43-28.93L218.43-28.93L218.43-28.93Q217.92-30.08 216.48-30.08L216.48-30.08L216.48-30.08Q215.04-30.08 214.08-29.18L214.08-29.18L214.08-29.18Q213.12-28.29 212.35-26.56ZM237.34-1.92L237.34-1.92L237.34-1.92Q235.84-3.58 235.17-6.21L235.17-6.21L235.17-6.21Q234.50-8.83 234.50-13.12L234.50-13.12L234.50-13.12Q234.50-17.41 235.97-21.31L235.97-21.31L235.97-21.31Q237.44-25.22 240.13-28.03L240.13-28.03L240.13-28.03Q245.63-33.92 254.72-33.92L254.72-33.92L254.72-33.92Q257.98-33.92 260.35-32.83L260.35-32.83L271.30-33.92L266.56-8.96L266.56-8.96Q266.37-8.19 266.37-6.78L266.37-6.78L266.37-6.78Q266.37-5.38 267.23-4.48L267.23-4.48L267.23-4.48Q268.10-3.58 269.38-3.46L269.38-3.46L269.38-3.46Q268.74-1.28 266.40 0L266.40 0L266.40 0Q264.06 1.28 261.44 1.28L261.44 1.28L261.44 1.28Q258.82 1.28 257.06 0.29L257.06 0.29L257.06 0.29Q255.30-0.70 254.78-2.37L254.78-2.37L254.78-2.37Q253.76-0.77 251.58 0.26L251.58 0.26L251.58 0.26Q249.41 1.28 246.50 1.28L246.50 1.28L246.50 1.28Q243.58 1.28 241.22 0.51L241.22 0.51L241.22 0.51Q238.85-0.26 237.34-1.92ZM250.85-27.90L250.85-27.90L250.85-27.90Q250.11-26.75 249.47-24.80L249.47-24.80L249.47-24.80Q248.83-22.85 247.78-17.63L247.78-17.63L247.78-17.63Q246.72-12.42 246.72-8.70L246.72-8.70L246.72-8.70Q246.72-4.99 247.30-3.90L247.30-3.90L247.30-3.90Q247.87-2.82 248.90-2.82L248.90-2.82L248.90-2.82Q250.94-2.82 252.45-4.77L252.45-4.77L252.45-4.77Q253.95-6.72 254.53-10.18L254.53-10.18L257.92-28.93L257.92-28.93Q256.58-30.08 255.01-30.08L255.01-30.08L255.01-30.08Q253.44-30.08 252.51-29.57L252.51-29.57L252.51-29.57Q251.58-29.06 250.85-27.90ZM294.78-17.98L294.78-17.98L294.78-17.98Q297.09-22.08 297.09-26.24L297.09-26.24L297.09-26.24Q297.09-28.99 295.10-28.99L295.10-28.99L295.10-28.99Q293.57-28.99 291.97-26.37L291.97-26.37L291.97-26.37Q290.30-23.74 289.79-20.35L289.79-20.35L286.46 0L273.22 1.28L279.74-32.64L290.30-33.92L289.15-27.46L289.15-27.46Q292.29-33.92 299.33-33.92L299.33-33.92L299.33-33.92Q303.04-33.92 305.06-32L305.06-32L305.06-32Q307.07-30.08 307.07-26.14L307.07-26.14L307.07-26.14Q307.07-22.21 304.48-19.71L304.48-19.71L304.48-19.71Q301.89-17.22 297.47-17.22L297.47-17.22L297.47-17.22Q295.55-17.22 294.78-17.98ZM328.26-33.92L328.26-33.92L328.26-33.92Q330.56-33.92 332.35-33.41L332.35-33.41L332.35-33.41Q332.42-33.66 332.54-34.37L332.54-34.37L332.86-36.35L332.86-36.35Q333.12-37.63 333.50-39.74L333.50-39.74L334.53-44.80L347.26-46.08L340.16-8.96L340.16-8.96Q340.10-8.58 340.10-7.94L340.10-7.94L340.10-6.91L340.10-6.91Q340.10-5.50 340.80-4.45L340.80-4.45L340.80-4.45Q341.50-3.39 342.66-3.39L342.66-3.39L342.66-3.39Q341.38-0.38 337.47 0.90L337.47 0.90L337.47 0.90Q336.13 1.28 334.24 1.28L334.24 1.28L334.24 1.28Q332.35 1.28 330.62 0.29L330.62 0.29L330.62 0.29Q328.90-0.70 328.38-2.37L328.38-2.37L328.38-2.37Q327.36-0.70 325.31 0.29L325.31 0.29L325.31 0.29Q323.26 1.28 320.29 1.28L320.29 1.28L320.29 1.28Q317.31 1.28 314.85 0.51L314.85 0.51L314.85 0.51Q312.38-0.26 310.85-1.92L310.85-1.92L310.85-1.92Q308.03-5.18 308.03-12.61L308.03-12.61L308.03-12.61Q308.03-22.21 313.66-28.03L313.66-28.03L313.66-28.03Q319.30-33.92 328.26-33.92ZM327.81-30.08L327.81-30.08L327.81-30.08Q325.44-30.08 324.16-27.52L324.16-27.52L324.16-27.52Q322.88-24.96 321.57-18.62L321.57-18.62L321.57-18.62Q320.26-12.29 320.26-6.59L320.26-6.59L320.26-6.59Q320.26-2.69 322.56-2.69L322.56-2.69L322.56-2.69Q324.61-2.69 326.05-4.74L326.05-4.74L326.05-4.74Q327.49-6.78 328.06-10.18L328.06-10.18L331.52-28.93L331.52-28.93Q330.18-30.08 327.81-30.08Z" fill="#ccc"></path></g></g><style>text {
  font-size: 64px;
  font-family: Arial Black;
  dominant-baseline: central;
  text-anchor: middle;
}</style></svg>